<?xml version="1.0" encoding="UTF-8" standalone="no"?>
<svg id="svg2" xmlns:rdf="http://www.w3.org/1999/02/22-rdf-syntax-ns#" xmlns="http://www.w3.org/2000/svg" height="350.29mm" width="153.76mm" version="1.1" xmlns:cc="http://creativecommons.org/ns#" xmlns:dc="http://purl.org/dc/elements/1.1/" viewBox="0 0 544.82537 1241.1991">
<g id="layer1" transform="translate(-618.05 255.79)">
<path id="path4147" d="m1026.7-255.76c-2.7112-0.37665-2.5386 3.1441 0.9346 19.048 1.5305 7.0079 2.8362 16.049 2.9017 20.09 0.066 4.0418 0.1565 10.079 0.2007 13.417 0.1204 9.1168-1.5437 27.54-3.9796 47.835-4.335-11.657-7.7727-21.323-8.9256-25.5-1.3997-5.0709-4.1765-14.87-6.1715-21.777-4.5891-15.888-6.063-24.77-6.5179-39.282-0.2493-7.9548-0.7824-11.738-1.7084-12.13-2.2158-0.93641-5.9235 4.8917-7.1999 11.316-0.63544 3.1984-1.5863 5.9411-2.1128 6.0954-0.5265 0.15433-1.3689 0.37577-1.8725 0.49114-0.50364 0.11538-2.9114-1.6237-5.3492-3.8646-2.4377-2.241-4.9577-4.1652-5.5999-4.2741-0.64217-0.10891-1.3562 1.4218-1.5865 3.4-0.73248 6.2902-1.7913 10.752-2.7458 11.56-0.50916 0.43097-4.0917-1.3563-7.9609-3.9711-4.7496-3.2097-7.6299-4.5139-8.8662-4.0121-2.5363 1.0294-0.62788 3.9927 10.332 16.029 4.8294 5.3038 10.482 12.481 12.56 15.948 2.0776 3.4675 5.1736 8.6507 6.8807 11.519 4.7459 7.9748 12.712 25.223 20.902 44.424-9.5256-7.8824-17.287-14.493-20.361-17.521-3.7476-3.6916-11.053-10.789-16.234-15.773-11.918-11.465-17.635-18.419-25.285-30.76-4.1933-6.7644-6.5468-9.7756-7.5445-9.6515-2.3871 0.29694-2.6847 7.1976-0.57785 13.4 1.0489 3.0876 1.5987 5.9387 1.2199 6.3356s-0.99957 1.0087-1.378 1.3604c-0.37848 0.35175-3.3322 0.0505-6.5638-0.67132s-6.3748-1.1282-6.9854-0.90143c-0.6106 0.22675-0.46476 1.9082 0.32487 3.7365 2.5108 5.8137 3.8239 10.208 3.4013 11.385-0.22548 0.6278-4.2217 0.87287-8.8799 0.54302-5.7181-0.40493-8.8631-0.0948-9.6829 0.95795-1.6818 2.1596 1.4522 3.7717 16.962 8.7158 6.8343 2.1786 15.317 5.5666 18.85 7.5307 3.533 1.9642 8.8072 4.9055 11.72 6.5362 8.116 4.5439 23.692 15.538 40.429 28.108-12.568-2.1199-22.933-4.0205-27.201-5.1297-5.0913-1.3232-14.967-3.8176-21.946-5.5433-16.054-3.9696-24.481-7.1326-37.276-13.995-7.0137-3.7615-10.558-5.1935-11.36-4.5872-1.9188 1.4507 1.2742 7.5764 6.1997 11.894 2.4522 2.1495 4.3521 4.3443 4.2225 4.8774-0.12959 0.53313-0.35991 1.3734-0.51181 1.8673-0.15191 0.49386-2.8609 1.7085-6.0205 2.6992-3.1596 0.99069-6.0843 2.2118-6.4997 2.7134-0.41542 0.50168 0.55234 1.8847 2.1503 3.0732 5.0812 3.7795 8.4148 6.9282 8.6372 8.1587 0.11865 0.65643-3.2208 2.865-7.4198 4.9085-5.1545 2.5084-7.723 4.3514-7.9066 5.673-0.37665 2.7112 3.1441 2.5386 19.048-0.93466 7.0079-1.5304 16.049-2.8362 20.09-2.9017 4.0418-0.0655 10.079-0.15454 13.417-0.19866 9.1165-0.12048 27.539 1.5416 47.834 3.9774-11.656 4.3345-21.322 7.775-25.498 8.9278-5.0708 1.3997-14.87 4.1765-21.777 6.1715-15.888 4.5891-24.768 6.0633-39.28 6.5182-7.9548 0.24931-11.738 0.78242-12.13 1.7085-0.93643 2.2158 4.8898 5.9232 11.314 7.1996 3.1984 0.63546 5.9411 1.5863 6.0954 2.1128 0.15434 0.52651 0.37577 1.3689 0.49115 1.8725 0.11538 0.50366-1.6234 2.9095-3.8644 5.3472-2.2409 2.4378-4.1633 4.958-4.2722 5.6002-0.1089 0.64217 1.4199 1.3559 3.398 1.5862 6.2902 0.73248 10.752 1.7932 11.56 2.7477 0.43097 0.50917-1.3563 4.0917-3.9711 7.9609-3.2097 4.7496-4.512 7.6301-4.0102 8.8665 1.0294 2.5363 3.991 0.62563 16.028-10.334 5.3038-4.8294 12.481-10.48 15.948-12.558 3.4676-2.0776 8.6527-5.1733 11.521-6.8805 7.9747-4.7458 25.222-12.713 44.422-20.903-7.8822 9.5254-14.491 17.285-17.519 20.359-3.6916 3.7476-10.791 11.053-15.775 16.234-11.465 11.918-18.419 17.635-30.76 25.285-6.7644 4.1933-9.7736 6.5471-9.6495 7.5447 0.26802 2.1547 5.9152 2.6007 11.573 1.1188-24.627 30.34-37.463 62.961-44.168 111.22-11.639 83.779 4.18 174.36 57.744 330.67 16.986 49.569 32.83 101.05 35.21 114.4 12.904 72.416 13.85 120.42 3.3721 171.37-3.496 17.001-7.4219 30.028-8.7228 28.95-1.3012-1.0774-0.72602-13.972 1.2756-28.656 7.0516-51.693 8.2464-96.154 3.2318-120.25-11.968-57.499-39.018-113.02-63.35-130.02-13.793-9.6358-34.598-12.504-43.251-5.9614-8.1945 6.1953-11.627 14.581-12.731 31.103-0.97167 14.542-1.7741 14.186 32.464 14.431 18.586 0.1328 22.051 5.9642 32.442 22.808 31.762 43.213 43.627 96.388 38.935 174.51-2.5856 43.055-7.8771 69.586-23.607 111.45-17.266-30.695-66.511-67.466-78.387-94.07-14.23-32.104-20.503-63.903-22.393-113.52-0.34843-9.15 2.7085-45.383 6.7928-80.519 12.879-110.8 10.3-172.82-9.411-226.41-12.292-33.418-26.681-53.717-50.356-71.039-3.104-2.2709-5.7747-4.056-8.0656-5.4034 0.94127-0.0682 1.9019-0.15593 2.8324-0.26117 3.6814-0.41633 6.9126-1.0386 7.1804-1.3825 1.069-1.3727-0.89092-2.5167-6.5663-3.8326-12.199-2.8286-24.866-9.4291-42.932-22.37-3.0685-2.1982-7.4663-5.5369-12.335-9.3015 4.307 0.83077 7.997 1.6324 10.582 2.3515 17.803 4.9528 23.503 7.0339 43.814 16.004 2.5852 1.1416 5.7913 2.8373 7.1235 3.768 3.1726 2.2164 4.5271 2.3581 4.7854 0.49918 0.3706-2.6684-1.9443-6.4938-5.8686-9.6927-2.1127-1.7223-3.6876-3.4428-3.4995-3.8226 0.18806-0.37983 2.5659-0.95091 5.2855-1.2691 8.1612-0.95497 8.1283-1.8157-0.20513-5.3506-2.753-1.1678-5.0798-2.5343-5.1703-3.0372-0.0905-0.50295 0.94369-1.3228 2.298-1.8222 1.3543-0.49943 4.8995-2.7085 7.8795-4.9097 2.9799-2.2012 5.468-4.357 5.5279-4.7888 0.23941-1.7233-2.0316-1.7332-7.6046-0.035-11.979 3.65-26.25 4.268-48.365 2.0931-3.9431-0.38776-9.7227-1.1189-16.207-2.0031 4.3401-1.5092 8.0914-2.7163 10.783-3.41 17.895-4.6125 23.872-5.6593 45.947-8.047 2.8096-0.3039 6.4342-0.43885 8.0533-0.29896 3.8556 0.33314 5.0995-0.22192 4.3937-1.961-1.0132-2.4962-4.9315-4.649-9.9294-5.4573-2.6908-0.43511-4.9144-1.139-4.9414-1.562-0.0271-0.42299 1.7472-2.1077 3.9432-3.743 6.5902-4.9076 6.1314-5.6348-2.8531-4.5294-2.968 0.36516-5.6642 0.34437-5.9941-0.0459-0.32986-0.39032 0.15358-1.6178 1.077-2.7274 0.9231-1.1097 2.8901-4.7971 4.3702-8.1934s2.5572-6.5043 2.3933-6.9083c-0.65435-1.6121-2.6279-0.48562-6.6052 3.7715-8.5492 9.1506-20.598 16.82-40.839 25.995-3.4635 1.5699-8.5953 3.7244-14.344 6.0801 3.042-3.5242 5.7202-6.4794 7.7239-8.4452 13.191-12.942 17.844-16.838 35.767-29.943 2.2813-1.668 5.3524-3.5969 6.8245-4.2853 3.5057-1.6393 4.3053-2.7413 2.8245-3.8945-2.1255-1.6552-6.5957-1.5606-11.328 0.23839-2.548 0.96856-4.8246 1.4719-5.0596 1.1191-0.23491-0.3528 0.46045-2.6997 1.5447-5.214 3.2535-7.5453 2.4915-7.9473-4.7365-2.4978-2.3878 1.8002-4.7341 3.1341-5.2149 2.961-0.4809-0.17309-0.67544-1.4808-0.43076-2.9033 0.24477-1.4226 0.10409-5.5964-0.31226-9.2777s-1.0383-6.9145-1.3822-7.1824c-1.3727-1.069-2.5189 0.89255-3.8348 6.568-2.8286 12.199-9.4271 24.867-22.368 42.932-1.748 2.44-4.2859 5.7989-7.085 9.4529 1.1911-6.8557 2.2236-12.29 2.8769-14.804 0.93568-3.6002 2.7005-10.583 3.9207-15.518 2.807-11.352 5.0446-17.311 9.8971-26.36 2.6598-4.9595 3.6704-7.4656 3.2416-8.0327-1.0258-1.3568-5.3549 0.90185-8.408 4.3847-1.5199 1.7339-3.0725 3.077-3.4495 2.9854-0.37698-0.09164-0.97111-0.25348-1.3203-0.3609-0.34922-0.10738-1.208-2.026-1.9085-4.2602s-1.5644-4.3012-1.9192-4.5949c-0.35474-0.29375-1.3328 0.39018-2.1732 1.5201-2.6725 3.593-4.9002 5.9505-5.7704 6.1078-0.46417 0.0839-2.0244-2.2768-3.4693-5.246-1.7737-3.6448-3.0786-5.4599-4.0131-5.5898-1.9171-0.26634-1.7953 2.2231 0.66069 13.469 1.0822 4.9554 2.0068 11.347 2.0532 14.205 0.0463 2.858 0.10978 7.1283 0.14098 9.4886 0.0852 6.4466-1.0913 19.472-2.8138 33.823-3.0653-8.2427-5.4962-15.077-6.3114-18.03-0.98976-3.5857-2.9532-10.515-4.3639-15.399-3.245-11.234-4.2866-17.515-4.6083-27.777-0.1763-5.6249-0.55354-8.2993-1.2084-8.576-1.5668-0.66215-4.1882 3.4578-5.0907 8.0006-0.44934 2.2616-1.1217 4.2009-1.494 4.31-0.3723 0.10913-0.96808 0.26685-1.3242 0.34844-0.35613 0.08158-2.0591-1.1494-3.7828-2.734-1.7238-1.5846-3.5058-2.9439-3.9599-3.0209-0.45408-0.07702-0.9579 1.005-1.1207 2.4038-0.51798 4.4479-1.2671 7.6025-1.9421 8.1738-0.36003 0.30475-2.8942-0.95835-5.6302-2.8073-3.3585-2.2696-5.3946-3.1917-6.2689-2.8369-1.7934 0.72791-0.44315 2.8227 7.3068 11.334 3.4149 3.7504 7.4113 8.8246 8.8804 11.277 1.4691 2.4519 3.6578 6.117 4.8649 8.1454 3.3558 5.6391 8.9897 17.836 14.781 31.413-6.7357-5.5737-12.224-10.247-14.397-12.388-2.65-2.6104-7.8169-7.6304-11.481-11.155-8.4275-8.1068-12.469-13.023-17.878-21.749-2.9651-4.7832-4.6286-6.914-5.3341-6.8263-1.688 0.20996-1.8991 5.0898-0.4093 9.4752 0.74168 2.1833 1.1303 4.199 0.86249 4.4797-0.26786 0.28066-0.70619 0.71434-0.97381 0.96305-0.26763 0.24873-2.3577 0.035-4.6428-0.47543-2.2851-0.51042-4.508-0.79739-4.9398-0.63697-0.43176 0.16034-0.32803 1.35 0.23034 2.6428 1.7754 4.111 2.7042 7.2179 2.4054 8.0502-0.15941 0.44393-2.9847 0.61708-6.2786 0.38383-4.0434-0.28633-6.2681-0.067-6.8478 0.67743-1.1892 1.5271 1.0274 2.6662 11.995 6.1623 4.8326 1.5405 10.831 3.9374 13.329 5.3263 2.4983 1.3889 6.227 3.4686 8.2866 4.6217 5.739 3.213 16.753 10.987 28.588 19.875-8.8873-1.499-16.217-2.8422-19.235-3.6266-3.6002-0.93567-10.583-2.7005-15.518-3.9207-11.352-2.807-17.31-5.0424-26.358-9.8949-4.9595-2.6598-7.4654-3.6723-8.0324-3.2436-1.3568 1.0258 0.89964 5.3566 4.3825 8.4096 1.734 1.5199 3.0789 3.0728 2.9873 3.4497-0.0916 0.377-0.25542 0.97086-0.36283 1.3201-0.10738 0.34923-2.0221 1.2085-4.2563 1.909-2.2342 0.70053-4.3028 1.5622-4.5966 1.917-0.29375 0.35474 0.39016 1.3328 1.5201 2.1732 3.593 2.6725 5.9505 4.9002 6.1078 5.7704 0.0839 0.46417-2.2771 2.0263-5.2463 3.4713-3.6448 1.7737-5.4616 3.0764-5.5914 4.0109-0.26634 1.9171 2.2231 1.7953 13.469-0.66069 4.9554-1.0822 11.349-2.0066 14.207-2.0529s7.1261-0.10812 9.4864-0.13931c6.4464-0.0852 19.473 1.0895 33.824 2.8119-8.2419 3.065-15.075 5.4984-18.029 6.3136-3.5857 0.98977-10.515 2.9532-15.399 4.3639-11.234 3.245-17.513 4.2869-27.775 4.6086-5.6249 0.17628-8.3012 0.55326-8.5779 1.2081-0.66215 1.5668 3.4578 4.1882 8.0006 5.0908 2.2616 0.44935 4.2009 1.1217 4.31 1.494 0.10914 0.3723 0.26492 0.96782 0.3465 1.3239 0.0816 0.35615-1.1472 2.0574-2.7318 3.7812s-2.9439 3.5058-3.0209 3.9599c-0.077 0.45409 1.005 0.95789 2.4038 1.1207 4.4479 0.51798 7.6023 1.2691 8.1735 1.944 0.30474 0.36004-0.96028 2.8939-2.8092 5.6299-2.2696 3.3585-3.1898 5.3949-2.835 6.2692 0.7279 1.7934 2.8227 0.44314 11.334-7.3068 3.7504-3.4149 8.8246-7.4113 11.277-8.8804 2.452-1.4691 6.1189-3.6575 8.1473-4.8646 5.639-3.3558 17.834-8.99 31.411-14.781-5.5736 6.7356-10.247 12.222-12.388 14.395-2.6104 2.65-7.6304 7.8169-11.155 11.481-8.1068 8.4275-13.025 12.469-21.751 17.878-4.7832 2.9651-6.9104 4.6311-6.8227 5.3365 0.20996 1.688 5.0881 1.8968 9.4736 0.40709 2.1833-0.74168 4.1988-1.1284 4.4794-0.86055 0.28067 0.26786 0.7146 0.70426 0.96332 0.97188 0.24873 0.26764 0.035 2.3577-0.47542 4.6428s-0.79731 4.5081-0.63698 4.9398c0.16035 0.43175 1.35 0.32802 2.6428-0.23034 4.111-1.7754 7.2177-2.7023 8.0499-2.4034 0.44395 0.15941 0.61736 2.9827 0.38411 6.2766-0.28634 4.0434-0.0673 6.27 0.67716 6.8498 1.5271 1.1892 2.6665-1.0294 6.1625-11.997 1.5405-4.8326 3.9371-10.829 5.326-13.328 1.3889-2.4983 3.4686-6.227 4.6217-8.2866 3.493-6.239 12.355-18.697 22.204-31.685-1.1402 6.3757-2.2462 11.756-3.2117 15.226-4.9528 17.803-7.0362 23.505-16.006 43.816-1.1416 2.5852-2.8351 5.7896-3.7658 7.1218-2.2164 3.1725-2.3581 4.5272-0.49918 4.7854 2.6684 0.3707 6.4921-1.9466 9.691-5.8708 1.7223-2.1128 3.4425-3.6856 3.8223-3.4975 0.37983 0.18809 0.95285 2.5662 1.2711 5.2857 0.95499 8.1612 1.8135 8.13 5.3484-0.20347 1.1678-2.753 2.5365-5.0815 3.0394-5.172 0.50296-0.0905 1.3228 0.94371 1.8222 2.298 0.49943 1.3543 2.7082 4.9014 4.9095 7.8814 2.2012 2.9799 4.355 5.4677 4.7868 5.5277 1.7233 0.23941 1.7354-2.0333 0.0372-7.6063-3.65-11.979-4.268-26.25-2.0931-48.365 0.38778-3.9433 1.1191-9.7242 2.0033-16.209 1.5091 4.34 2.7139 8.0951 3.4075 10.786 4.6125 17.895 5.6615 23.87 8.0492 45.945 0.30386 2.8096 0.43687 6.4339 0.29704 8.053-0.33319 3.8557 0.2219 5.0995 1.9609 4.3937 2.4962-1.0131 4.651-4.9313 5.4593-9.9292 0.43522-2.6909 1.139-4.9144 1.562-4.9414 0.42297-0.0271 2.1055 1.7488 3.7408 3.9449 4.9077 6.5903 5.6371 6.1297 4.5316-2.8548-0.36517-2.968-0.346-5.6664 0.0443-5.9963 0.39035-0.32986 1.6194 0.15598 2.729 1.0792 1.1097 0.92314 4.7951 2.8898 8.1914 4.3699 3.3962 1.4801 6.5043 2.5573 6.9082 2.3933 1.6122-0.6543 0.48734-2.6257-3.7698-6.603-9.1506-8.5492-16.82-20.6-25.995-40.84-1.5699-3.4635-3.7263-8.5955-6.082-14.344 3.5244 3.0422 6.4812 5.7204 8.4472 7.7241 12.942 13.191 16.836 17.843 29.941 35.767 1.668 2.2813 3.5968 5.3524 4.2853 6.8245 1.6393 3.5057 2.743 4.3074 3.8961 2.8267 1.6552-2.1255 1.5608-6.5976-0.23813-11.33-0.9686-2.548-1.4719-4.8246-1.1191-5.0595 0.35282-0.23491 2.6978 0.46023 5.2121 1.5444 0.8214 0.35419 1.521 0.63983 2.1748 0.89567 1.5719 2.0797 3.8364 3.8738 7.3063 5.9862 16.731 10.185 31.636 33.398 45.605 71.027 11.177 30.106 16.782 52.977 17.828 72.729 0.76527 14.458-19.448 205.82-21.473 203.29-2.2714-2.8424-1.252-35.744 2.8394-91.69 6.3403-86.702 3.4095-125.26-12.123-159.54-8.0988-17.874-16.095-28.646-28.798-38.789-14.57-11.632-25.454-14.62-38.813-10.657-15.237 4.5205-21.3 12.232-17.576 22.357 1.4368 3.9061 4.1597 8.0822 6.0501 9.2802 1.8903 1.198 11.997 2.9482 22.459 3.8912 20.965 1.8896 29.842 5.7788 37.375 16.369 5.9193 8.3222 13.973 34.553 18.003 58.637 3.7835 22.614 5.193 75.581 3.238 121.65-2.068 48.73-0.41288 79.206 4.5539 109.77 3.8333 23.588 7.8838 45.788 19.718 85.846 27.331 56.561 42.945 62.198 70.752 88.395 13.91 17.42 16.338 36.453 14.921 52.957-16.111 40.13-70.744 132.96-66.433 139.92 6.5378 7.1924 29.394 12.887 32.751 9.6977 7.3276-7.0519 44.988-94.682 79.884-165.22 22.697-45.88 40.004-83.757 46.739-140.02 4.5036-61.711 3.3692-95.119 1.4828-130.47-2.4442-45.803-9.6562-90.435-28.009-160.32-17.352-66.071-32.006-143.18-33.657-177.1-1.7585-36.13 1.6301-76.636 7.5748-90.548 7.5647-17.703 19.19-26.129 48.94-35.472 14.846-4.6627 28.923-10.383 31.281-12.713 2.3586-2.3298 4.9839-9.233 5.8323-15.339 2.199-15.829-9.0082-25.079-32.488-26.819-20.584-1.5258-35.396 6.2302-52.818 27.659-15.19 18.684-23.37 36.797-29.458 65.221-11.677 54.514-3.7645 111.24 32.741 234.74 23.556 79.688 35.401 126.99 33.009 131.82-2.1322 4.3057-91.706-266.31-95.155-287.48-4.7123-28.919-3.8067-63.787 2.8817-110.89 7.959-56.054 21.27-93.442 40.66-114.17 2.5875-0.85819 4.4367-1.2312 5.1349-0.98047 0.62783 0.22547 0.8712 4.2194 0.54135 8.8777-0.40493 5.7181-0.0931 8.8653 0.95962 9.6851 2.1596 1.6818 3.77-1.4544 8.7141-16.964 2.1786-6.8343 5.5682-15.315 7.5324-18.848s4.9055-8.8072 6.5362-11.72c4.9398-8.8233 17.473-26.441 31.402-44.808-1.6125 9.0166-3.178 16.625-4.5434 21.533-7.0042 25.178-9.9495 33.239-22.634 61.963-1.6145 3.656-4.011 8.1877-5.3272 10.072-3.1344 4.4866-3.3348 6.4048-0.70588 6.77 3.7736 0.52425 9.1825-2.7528 13.706-8.3023 2.4356-2.9879 4.8689-5.2137 5.406-4.9477 0.5372 0.266 1.3449 3.6304 1.7949 7.4763 1.3506 11.542 2.566 11.495 7.565-0.2899 1.6515-3.8933 3.5858-7.1842 4.2971-7.3122s1.8712 1.3336 2.5775 3.2489c0.7063 1.9152 3.8315 6.9314 6.9444 11.146 3.113 4.2142 6.1595 7.7317 6.7701 7.8165 2.4371 0.33858 2.4523-2.8741 0.051-10.755-5.1618-16.941-6.0357-37.122-2.96-68.398 0.5484-5.5767 1.5829-13.752 2.8334-22.922 2.1342 6.1376 3.8392 11.446 4.8202 15.252 6.523 25.307 8.0053 33.759 11.382 64.977 0.4298 3.9734 0.6193 9.0973 0.4215 11.387-0.4712 5.4527 0.3133 7.2142 2.7726 6.216 3.5302-1.4328 6.5775-6.9739 7.7205-14.042 0.6155-3.8055 1.6091-6.9511 2.2074-6.9893 0.5981-0.03823 2.9799 2.4726 5.2925 5.5782 6.9405 9.32 7.9706 8.6701 6.4073-4.0356-0.5164-4.1974-0.4879-8.0136 0.064-8.4801 0.5521-0.46649 2.2887 0.22032 3.8579 1.5259 1.5693 1.3055 6.7832 4.0853 11.586 6.1785 4.8029 2.0931 9.1986 3.6162 9.7698 3.3844 2.2799-0.92532 0.6883-3.7134-5.3321-9.3382-12.941-12.09-23.789-29.133-36.764-57.757-2.2202-4.8981-5.2697-12.155-8.6011-20.285 4.9842 4.3024 9.1662 8.0898 11.946 10.924 18.302 18.655 23.812 25.234 42.345 50.581 2.3589 3.2262 5.084 7.57 6.0575 9.6519 2.3184 4.9577 3.8797 6.0896 5.5105 3.9955 2.3408-3.0059 2.2083-9.3283-0.3358-16.021-1.3698-3.6033-2.082-6.8229-1.5832-7.1551 0.499-0.33219 3.8154 0.65029 7.3712 2.1835 10.67 4.6012 11.238 3.523 3.5316-6.6989-2.546-3.3768-4.4278-6.6963-4.183-7.3762 0.2447-0.68001 2.0913-0.9532 4.1031-0.60719 2.0118 0.34596 7.9168 0.14818 13.123-0.4406 5.2062-0.58879 9.7758-1.4689 10.155-1.9553 1.5117-1.9413-1.2615-3.5604-9.2877-5.4214-17.252-4.0001-35.166-13.334-60.714-31.636-4.3395-3.1086-10.558-7.8305-17.444-13.154 6.0909 1.1749 11.309 2.3082 14.964 3.3251 25.178 7.0042 33.239 9.9476 61.963 22.632 3.656 1.6145 8.1893 4.0132 10.073 5.3294 4.4866 3.1344 6.4028 3.3345 6.7681 0.70561 0.5241-3.7736-2.7508-9.1822-8.3003-13.706-2.9879-2.4357-5.2157-4.8692-4.9497-5.4063 0.266-0.53716 3.6303-1.3449 7.4763-1.7949 11.542-1.3505 11.496-2.5679-0.2896-7.5669-3.8932-1.6515-7.1845-3.5839-7.3125-4.2951-0.128-0.71128 1.3354-1.871 3.2507-2.5772 1.9153-0.7063 6.9295-3.8318 11.144-6.9447 4.2142-3.113 7.7316-6.1594 7.8164-6.7701 0.3386-2.4371-2.8722-2.452-10.754-0.0505-16.941 5.1618-37.124 6.0354-68.4 2.9598-5.5763-0.54838-13.75-1.5828-22.92-2.8332 6.1377-2.1343 11.444-3.8414 15.25-4.8224 25.306-6.523 33.761-8.003 64.979-11.38 3.9734-0.42978 9.0972-0.61929 11.387-0.42147 5.4527 0.47114 7.2126-0.31544 6.2144-2.7748-1.4327-3.5301-6.9742-6.5755-14.042-7.7186-3.8055-0.6154-6.9492-1.6089-6.9874-2.2071-0.038-0.59819 2.4707-2.9801 5.5762-5.2928 9.32-6.9404 8.6702-7.9706-4.0356-6.4073-4.1974 0.51639-8.0114 0.48632-8.4779-0.0657-0.4665-0.55198 0.2178-2.2871 1.5237-3.8563 1.3054-1.5693 4.0873-6.7829 6.1804-11.586 2.0933-4.803 3.6165-9.2005 3.3847-9.7718-0.9254-2.2799-3.7157-0.68662-9.3404 5.3338-12.09 12.941-29.131 23.787-57.754 36.762-4.8981 2.2202-12.156 5.2694-20.287 8.6008 4.3021-4.9839 8.0898-9.1645 10.923-11.945 18.654-18.302 25.236-23.811 50.583-42.345 3.2262-2.3589 7.5684-5.0862 9.6503-6.0598 4.9577-2.3183 6.0893-3.8777 3.9952-5.5085-3.0059-2.3408-9.3284-2.2083-16.021 0.33575-3.6034 1.3697-6.8229 2.0822-7.1551 1.5832-0.3322-0.49893 0.6505-3.8175 2.1838-7.3732 4.6011-10.671 3.5229-11.238-6.6989-3.5316-3.3768 2.5459-6.6946 4.43-7.3745 4.1852-0.6801-0.24479-0.9532-2.0913-0.6072-4.103 0.3461-2.0118 0.1462-7.9171-0.4426-13.123-0.5888-5.2061-1.4688-9.7759-1.9552-10.155-1.9412-1.5118-3.5604 1.2614-5.4214 9.2876-4.0001 17.252-13.334 35.166-31.636 60.715-2.472 3.4507-6.0603 8.2002-10.019 13.368 1.6845-9.6953 3.1461-17.381 4.07-20.936 1.3233-5.0914 3.8177-14.967 5.5433-21.946 3.9696-16.054 7.1348-24.482 13.997-37.278 3.7615-7.0137 5.1914-10.556 4.5851-11.358-1.4507-1.9188-7.5745 1.2744-11.892 6.1999-2.1495 2.4521-4.3443 4.3521-4.8774 4.2225s-1.3734-0.35992-1.8673-0.51182c-0.4938-0.1519-1.7082-2.8628-2.6989-6.0224-0.9906-3.1596-2.2118-6.0842-2.7134-6.4997-0.5017-0.41542-1.8847 0.55236-3.0732 2.1503-3.7795 5.0812-6.9301 8.4145-8.1607 8.637-0.6564 0.11865-2.8653-3.2188-4.9087-7.4179-2.5084-5.1545-4.3514-7.723-5.673-7.9066z"/>
</g>
</svg>